<svg width="1641" height="871" viewBox="0 0 1641 871" version="1.1" xmlns="http://www.w3.org/2000/svg" xmlns:xlink="http://www.w3.org/1999/xlink" xmlns:figma="http://www.figma.com/figma/ns">
<title>Group</title>
<desc>Created using Figma</desc>
<g id="Canvas" transform="translate(513 -1666)" figma:type="canvas">
<g id="Group" style="mix-blend-mode:normal;" figma:type="frame">
<g id="Rectangle" style="mix-blend-mode:normal;" figma:type="rounded-rectangle">
<use xlink:href="#path0_fill" transform="translate(-512.478 1906.54)" fill="#039BE5" style="mix-blend-mode:normal;"/>
</g>
<g id="Rectangle" style="mix-blend-mode:normal;" figma:type="rounded-rectangle">
<use xlink:href="#path0_fill" transform="translate(-177.117 1906.54)" fill="#0C6AC7" style="mix-blend-mode:normal;"/>
</g>
<g id="Rectangle" style="mix-blend-mode:normal;" figma:type="rounded-rectangle">
<use xlink:href="#path0_fill" transform="translate(149.049 1906.54)" fill="#039BE5" style="mix-blend-mode:normal;"/>
</g>
<g id="Rectangle" style="mix-blend-mode:normal;" figma:type="rounded-rectangle">
<use xlink:href="#path0_fill" transform="translate(801.38 1906.54)" fill="#039BE5" style="mix-blend-mode:normal;"/>
</g>
<g id="Rectangle" style="mix-blend-mode:normal;" figma:type="rounded-rectangle">
<use xlink:href="#path0_fill" transform="translate(475.214 1906.54)" fill="#0C6AC7" style="mix-blend-mode:normal;"/>
</g>
<g id="Rectangle" style="mix-blend-mode:normal;" figma:type="rounded-rectangle">
<use xlink:href="#path1_fill" transform="translate(-512.478 1666.51)" fill="#039BE5" style="mix-blend-mode:normal;"/>
</g>
<g id="Rectangle" style="mix-blend-mode:normal;" figma:type="rounded-rectangle">
<use xlink:href="#path1_fill" transform="translate(-177.117 1666.51)" fill="#0C6AC7" style="mix-blend-mode:normal;"/>
</g>
<g id="Rectangle" style="mix-blend-mode:normal;" figma:type="rounded-rectangle">
<use xlink:href="#path1_fill" transform="translate(149.049 1666.51)" fill="#039BE5" style="mix-blend-mode:normal;"/>
</g>
<g id="Rectangle" style="mix-blend-mode:normal;" figma:type="rounded-rectangle">
<use xlink:href="#path1_fill" transform="translate(801.38 1666.51)" fill="#039BE5" style="mix-blend-mode:normal;"/>
</g>
<g id="Rectangle" style="mix-blend-mode:normal;" figma:type="rounded-rectangle">
<use xlink:href="#path1_fill" transform="translate(475.214 1666.51)" fill="#0C6AC7" style="mix-blend-mode:normal;"/>
</g>
<g id="(0, 0)" style="mix-blend-mode:normal;" figma:type="text">
<use xlink:href="#path2_fill" transform="translate(-156.132 1700.23)" fill="#FFFFFF" style="mix-blend-mode:normal;"/>
</g>
<g id="(0, 0)" style="mix-blend-mode:normal;" figma:type="text">
<use xlink:href="#path2_fill" transform="translate(-486.895 1926.09)" fill="#FFFFFF" style="mix-blend-mode:normal;"/>
</g>
<g id="(1, 0)" style="mix-blend-mode:normal;" figma:type="text">
<use xlink:href="#path3_fill" transform="translate(-486.895 2069.09)" fill="#FFFFFF" style="mix-blend-mode:normal;"/>
</g>
<g id="(1, 0)" style="mix-blend-mode:normal;" figma:type="text">
<use xlink:href="#path3_fill" transform="translate(170.034 1700.23)" fill="#FFFFFF" style="mix-blend-mode:normal;"/>
</g>
<g id="(0, 1)" style="mix-blend-mode:normal;" figma:type="text">
<use xlink:href="#path4_fill" transform="translate(-486.895 2211.09)" fill="#FFFFFF" style="mix-blend-mode:normal;"/>
</g>
<g id="(0, 1)" style="mix-blend-mode:normal;" figma:type="text">
<use xlink:href="#path4_fill" transform="translate(500.797 1700.23)" fill="#FFFFFF" style="mix-blend-mode:normal;"/>
</g>
<g id="(1, 1)" style="mix-blend-mode:normal;" figma:type="text">
<use xlink:href="#path5_fill" transform="translate(-486.895 2353.09)" fill="#FFFFFF" style="mix-blend-mode:normal;"/>
</g>
<g id="(1, 1)" style="mix-blend-mode:normal;" figma:type="text">
<use xlink:href="#path5_fill" transform="translate(826.962 1700.23)" fill="#FFFFFF" style="mix-blend-mode:normal;"/>
</g>
<g id="(0, 0)" style="mix-blend-mode:normal;" figma:type="text">
<use xlink:href="#path6_fill" transform="translate(-136.982 1926.09)" fill="#FFFFFF" style="mix-blend-mode:normal;"/>
</g>
<g id="(1, 0)" style="mix-blend-mode:normal;" figma:type="text">
<use xlink:href="#path7_fill" transform="translate(-136.982 2068.09)" fill="#FFFFFF" style="mix-blend-mode:normal;"/>
</g>
<g id="(1, 0)" style="mix-blend-mode:normal;" figma:type="text">
<use xlink:href="#path7_fill" transform="translate(193.781 1926.59)" fill="#FFFFFF" style="mix-blend-mode:normal;"/>
</g>
<g id="(1, 0)" style="mix-blend-mode:normal;" figma:type="text">
<use xlink:href="#path7_fill" transform="translate(518.797 2354.09)" fill="#FFFFFF" style="mix-blend-mode:normal;"/>
</g>
<g id="(1, 0)" style="mix-blend-mode:normal;" figma:type="text">
<use xlink:href="#path7_fill" transform="translate(844.963 2212.09)" fill="#FFFFFF" style="mix-blend-mode:normal;"/>
</g>
<g id="(0, 1)" style="mix-blend-mode:normal;" figma:type="text">
<use xlink:href="#path8_fill" transform="translate(-138.132 2212.09)" fill="#FFFFFF" style="mix-blend-mode:normal;"/>
</g>
<g id="(0, 1)" style="mix-blend-mode:normal;" figma:type="text">
<use xlink:href="#path8_fill" transform="translate(193.781 2354.09)" fill="#FFFFFF" style="mix-blend-mode:normal;"/>
</g>
<g id="(0, 1)" style="mix-blend-mode:normal;" figma:type="text">
<use xlink:href="#path8_fill" transform="translate(518.797 1926.09)" fill="#FFFFFF" style="mix-blend-mode:normal;"/>
</g>
<g id="(0, 1)" style="mix-blend-mode:normal;" figma:type="text">
<use xlink:href="#path8_fill" transform="translate(844.963 2068.09)" fill="#FFFFFF" style="mix-blend-mode:normal;"/>
</g>
<g id="(1, 1)" style="mix-blend-mode:normal;" figma:type="text">
<use xlink:href="#path9_fill" transform="translate(-138.132 2354.09)" fill="#FFFFFF" style="mix-blend-mode:normal;"/>
</g>
<g id="(1, 1)" style="mix-blend-mode:normal;" figma:type="text">
<use xlink:href="#path9_fill" transform="translate(193.781 2212.09)" fill="#FFFFFF" style="mix-blend-mode:normal;"/>
</g>
<g id="(1, 1)" style="mix-blend-mode:normal;" figma:type="text">
<use xlink:href="#path9_fill" transform="translate(518.797 2069.09)" fill="#FFFFFF" style="mix-blend-mode:normal;"/>
</g>
<g id="(1, 1)" style="mix-blend-mode:normal;" figma:type="text">
<use xlink:href="#path9_fill" transform="translate(844.963 1926.09)" fill="#FFFFFF" style="mix-blend-mode:normal;"/>
</g>
<g id="(0, 0)" style="mix-blend-mode:normal;" figma:type="text">
<use xlink:href="#path6_fill" transform="translate(193.781 2069.09)" fill="#FFFFFF" style="mix-blend-mode:normal;"/>
</g>
<g id="(0, 0)" style="mix-blend-mode:normal;" figma:type="text">
<use xlink:href="#path6_fill" transform="translate(518.797 2212.09)" fill="#FFFFFF" style="mix-blend-mode:normal;"/>
</g>
<g id="(0, 0)" style="mix-blend-mode:normal;" figma:type="text">
<use xlink:href="#path6_fill" transform="translate(844.962 2354.09)" fill="#FFFFFF" style="mix-blend-mode:normal;"/>
</g>
</g>
</g>
<defs>
<path id="path0_fill" d="M 0 0L 326.165 0L 326.165 630.098L 0 630.098L 0 0Z"/>
<path id="path1_fill" d="M 0 0L 326.165 0L 326.165 231.029L 0 231.029L 0 0Z"/>
<path id="path2_fill" d="M 38.2 136.8C 38.2 136.3 37.9 135.8 37.9 135.8C 35 133.1 28.5 127 24.3 114.2C 21.7 106.3 20.5 97.1 20.5 88.3C 20.5 68.6 25.6 52.9 36.6 41.8C 38.1 40.3 38.2 40.2 38.2 39.7C 38.2 38.6 37.2 38.3 36.4 38.3C 34.7 38.3 30.5 42 28.7 43.7C 13.1 59.2 10.8 77.6 10.8 88.2C 10.8 100.7 14.1 111.7 18.8 120C 25.4 131.5 34.5 138.2 36.4 138.2C 37.2 138.2 38.2 137.9 38.2 136.8ZM 97.6266 81.4C 97.6266 71.7 97.5266 47.8 73.4266 47.8C 49.3266 47.8 49.2266 71.6 49.2266 81.4C 49.2266 91.3 49.3266 114.4 73.4266 114.4C 97.4266 114.4 97.6266 91.4 97.6266 81.4ZM 84.8266 80.2C 84.8266 85.8 84.8266 94.9 84.1266 100.1C 82.7266 109.4 76.4266 110.8 73.4266 110.8C 69.8266 110.8 64.2266 108.6 62.9266 101.3C 62.0266 96.1 62.0266 85.7 62.0266 80.2C 62.0266 73 62.0266 66.5 62.8266 61.3C 64.0266 52.4 71.0266 51.4 73.4266 51.4C 77.1266 51.4 81.2266 53.3 83.1266 57.7C 84.8266 61.4 84.8266 72 84.8266 80.2ZM 127.246 110.2C 127.246 103.4 123.846 97.7 118.046 97.7C 113.446 97.7 110.346 101.2 110.346 105.5C 110.346 109.5 113.046 113.3 118.146 113.3C 121.346 113.3 123.346 111.6 123.646 111.3C 122.846 122.2 116.346 127.5 114.246 129.3C 113.646 129.8 113.346 130.1 113.346 130.7C 113.346 131.7 114.446 132.7 115.246 132.7C 116.746 132.7 127.246 124.1 127.246 110.2ZM 225.361 81.4C 225.361 71.7 225.261 47.8 201.161 47.8C 177.061 47.8 176.961 71.6 176.961 81.4C 176.961 91.3 177.061 114.4 201.161 114.4C 225.161 114.4 225.361 91.4 225.361 81.4ZM 212.561 80.2C 212.561 85.8 212.561 94.9 211.861 100.1C 210.461 109.4 204.161 110.8 201.161 110.8C 197.561 110.8 191.961 108.6 190.661 101.3C 189.761 96.1 189.761 85.7 189.761 80.2C 189.761 73 189.761 66.5 190.561 61.3C 191.761 52.4 198.761 51.4 201.161 51.4C 204.861 51.4 208.961 53.3 210.861 57.7C 212.561 61.4 212.561 72 212.561 80.2ZM 263.78 88.3C 263.78 75.8 260.48 64.8 255.78 56.5C 249.18 45 240.08 38.3 238.18 38.3C 237.38 38.3 236.38 38.6 236.38 39.7C 236.38 40.2 236.38 40.4 238.08 42C 250.68 54.8 254.08 72.5 254.08 88.2C 254.08 107.9 248.98 123.6 237.98 134.7C 236.48 136.2 236.38 136.3 236.38 136.8C 236.38 137.9 237.38 138.2 238.18 138.2C 239.88 138.2 244.08 134.5 245.88 132.8C 261.48 117.3 263.78 98.9 263.78 88.3Z"/>
<path id="path3_fill" d="M 38.2 136.8C 38.2 136.3 37.9 135.8 37.9 135.8C 35 133.1 28.5 127 24.3 114.2C 21.7 106.3 20.5 97.1 20.5 88.3C 20.5 68.6 25.6 52.9 36.6 41.8C 38.1 40.3 38.2 40.2 38.2 39.7C 38.2 38.6 37.2 38.3 36.4 38.3C 34.7 38.3 30.5 42 28.7 43.7C 13.1 59.2 10.8 77.6 10.8 88.2C 10.8 100.7 14.1 111.7 18.8 120C 25.4 131.5 34.5 138.2 36.4 138.2C 37.2 138.2 38.2 137.9 38.2 136.8ZM 94.1266 113.3L 94.1266 108.6L 80.1266 108.6L 80.1266 51C 80.1266 48.8 80.1266 47.8 77.5266 47.8C 76.4266 47.8 76.2266 47.8 75.3266 48.5C 67.6266 54.2 57.3266 54.2 55.2266 54.2L 53.2266 54.2L 53.2266 58.9L 55.2266 58.9C 56.8266 58.9 62.3266 58.8 68.2266 56.9L 68.2266 108.6L 54.3266 108.6L 54.3266 113.3C 58.7266 113 69.3266 113 74.2266 113C 79.1266 113 89.7266 113 94.1266 113.3ZM 127.246 110.2C 127.246 103.4 123.846 97.7 118.046 97.7C 113.446 97.7 110.346 101.2 110.346 105.5C 110.346 109.5 113.046 113.3 118.146 113.3C 121.346 113.3 123.346 111.6 123.646 111.3C 122.846 122.2 116.346 127.5 114.246 129.3C 113.646 129.8 113.346 130.1 113.346 130.7C 113.346 131.7 114.446 132.7 115.246 132.7C 116.746 132.7 127.246 124.1 127.246 110.2ZM 225.361 81.4C 225.361 71.7 225.261 47.8 201.161 47.8C 177.061 47.8 176.961 71.6 176.961 81.4C 176.961 91.3 177.061 114.4 201.161 114.4C 225.161 114.4 225.361 91.4 225.361 81.4ZM 212.561 80.2C 212.561 85.8 212.561 94.9 211.861 100.1C 210.461 109.4 204.161 110.8 201.161 110.8C 197.561 110.8 191.961 108.6 190.661 101.3C 189.761 96.1 189.761 85.7 189.761 80.2C 189.761 73 189.761 66.5 190.561 61.3C 191.761 52.4 198.761 51.4 201.161 51.4C 204.861 51.4 208.961 53.3 210.861 57.7C 212.561 61.4 212.561 72 212.561 80.2ZM 263.78 88.3C 263.78 75.8 260.48 64.8 255.78 56.5C 249.18 45 240.08 38.3 238.18 38.3C 237.38 38.3 236.38 38.6 236.38 39.7C 236.38 40.2 236.38 40.4 238.08 42C 250.68 54.8 254.08 72.5 254.08 88.2C 254.08 107.9 248.98 123.6 237.98 134.7C 236.48 136.2 236.38 136.3 236.38 136.8C 236.38 137.9 237.38 138.2 238.18 138.2C 239.88 138.2 244.08 134.5 245.88 132.8C 261.48 117.3 263.78 98.9 263.78 88.3Z"/>
<path id="path4_fill" d="M 38.2 136.8C 38.2 136.3 37.9 135.8 37.9 135.8C 35 133.1 28.5 127 24.3 114.2C 21.7 106.3 20.5 97.1 20.5 88.3C 20.5 68.6 25.6 52.9 36.6 41.8C 38.1 40.3 38.2 40.2 38.2 39.7C 38.2 38.6 37.2 38.3 36.4 38.3C 34.7 38.3 30.5 42 28.7 43.7C 13.1 59.2 10.8 77.6 10.8 88.2C 10.8 100.7 14.1 111.7 18.8 120C 25.4 131.5 34.5 138.2 36.4 138.2C 37.2 138.2 38.2 137.9 38.2 136.8ZM 97.6266 81.4C 97.6266 71.7 97.5266 47.8 73.4266 47.8C 49.3266 47.8 49.2266 71.6 49.2266 81.4C 49.2266 91.3 49.3266 114.4 73.4266 114.4C 97.4266 114.4 97.6266 91.4 97.6266 81.4ZM 84.8266 80.2C 84.8266 85.8 84.8266 94.9 84.1266 100.1C 82.7266 109.4 76.4266 110.8 73.4266 110.8C 69.8266 110.8 64.2266 108.6 62.9266 101.3C 62.0266 96.1 62.0266 85.7 62.0266 80.2C 62.0266 73 62.0266 66.5 62.8266 61.3C 64.0266 52.4 71.0266 51.4 73.4266 51.4C 77.1266 51.4 81.2266 53.3 83.1266 57.7C 84.8266 61.4 84.8266 72 84.8266 80.2ZM 127.246 110.2C 127.246 103.4 123.846 97.7 118.046 97.7C 113.446 97.7 110.346 101.2 110.346 105.5C 110.346 109.5 113.046 113.3 118.146 113.3C 121.346 113.3 123.346 111.6 123.646 111.3C 122.846 122.2 116.346 127.5 114.246 129.3C 113.646 129.8 113.346 130.1 113.346 130.7C 113.346 131.7 114.446 132.7 115.246 132.7C 116.746 132.7 127.246 124.1 127.246 110.2ZM 221.861 113.3L 221.861 108.6L 207.861 108.6L 207.861 51C 207.861 48.8 207.861 47.8 205.261 47.8C 204.161 47.8 203.961 47.8 203.061 48.5C 195.361 54.2 185.061 54.2 182.961 54.2L 180.961 54.2L 180.961 58.9L 182.961 58.9C 184.561 58.9 190.061 58.8 195.961 56.9L 195.961 108.6L 182.061 108.6L 182.061 113.3C 186.461 113 197.061 113 201.961 113C 206.861 113 217.461 113 221.861 113.3ZM 263.78 88.3C 263.78 75.8 260.48 64.8 255.78 56.5C 249.18 45 240.08 38.3 238.18 38.3C 237.38 38.3 236.38 38.6 236.38 39.7C 236.38 40.2 236.38 40.4 238.08 42C 250.68 54.8 254.08 72.5 254.08 88.2C 254.08 107.9 248.98 123.6 237.98 134.7C 236.48 136.2 236.38 136.3 236.38 136.8C 236.38 137.9 237.38 138.2 238.18 138.2C 239.88 138.2 244.08 134.5 245.88 132.8C 261.48 117.3 263.78 98.9 263.78 88.3Z"/>
<path id="path5_fill" d="M 38.2 136.8C 38.2 136.3 37.9 135.8 37.9 135.8C 35 133.1 28.5 127 24.3 114.2C 21.7 106.3 20.5 97.1 20.5 88.3C 20.5 68.6 25.6 52.9 36.6 41.8C 38.1 40.3 38.2 40.2 38.2 39.7C 38.2 38.6 37.2 38.3 36.4 38.3C 34.7 38.3 30.5 42 28.7 43.7C 13.1 59.2 10.8 77.6 10.8 88.2C 10.8 100.7 14.1 111.7 18.8 120C 25.4 131.5 34.5 138.2 36.4 138.2C 37.2 138.2 38.2 137.9 38.2 136.8ZM 94.1266 113.3L 94.1266 108.6L 80.1266 108.6L 80.1266 51C 80.1266 48.8 80.1266 47.8 77.5266 47.8C 76.4266 47.8 76.2266 47.8 75.3266 48.5C 67.6266 54.2 57.3266 54.2 55.2266 54.2L 53.2266 54.2L 53.2266 58.9L 55.2266 58.9C 56.8266 58.9 62.3266 58.8 68.2266 56.9L 68.2266 108.6L 54.3266 108.6L 54.3266 113.3C 58.7266 113 69.3266 113 74.2266 113C 79.1266 113 89.7266 113 94.1266 113.3ZM 127.246 110.2C 127.246 103.4 123.846 97.7 118.046 97.7C 113.446 97.7 110.346 101.2 110.346 105.5C 110.346 109.5 113.046 113.3 118.146 113.3C 121.346 113.3 123.346 111.6 123.646 111.3C 122.846 122.2 116.346 127.5 114.246 129.3C 113.646 129.8 113.346 130.1 113.346 130.7C 113.346 131.7 114.446 132.7 115.246 132.7C 116.746 132.7 127.246 124.1 127.246 110.2ZM 221.861 113.3L 221.861 108.6L 207.861 108.6L 207.861 51C 207.861 48.8 207.861 47.8 205.261 47.8C 204.161 47.8 203.961 47.8 203.061 48.5C 195.361 54.2 185.061 54.2 182.961 54.2L 180.961 54.2L 180.961 58.9L 182.961 58.9C 184.561 58.9 190.061 58.8 195.961 56.9L 195.961 108.6L 182.061 108.6L 182.061 113.3C 186.461 113 197.061 113 201.961 113C 206.861 113 217.461 113 221.861 113.3ZM 263.78 88.3C 263.78 75.8 260.48 64.8 255.78 56.5C 249.18 45 240.08 38.3 238.18 38.3C 237.38 38.3 236.38 38.6 236.38 39.7C 236.38 40.2 236.38 40.4 238.08 42C 250.68 54.8 254.08 72.5 254.08 88.2C 254.08 107.9 248.98 123.6 237.98 134.7C 236.48 136.2 236.38 136.3 236.38 136.8C 236.38 137.9 237.38 138.2 238.18 138.2C 239.88 138.2 244.08 134.5 245.88 132.8C 261.48 117.3 263.78 98.9 263.78 88.3Z"/>
<path id="path6_fill" d="M 33.1 136.7C 33.1 136.4 33.1 136.2 31.4 134.5C 18.9 121.9 15.7 103 15.7 87.7C 15.7 70.3 19.5 52.9 31.8 40.4C 33.1 39.2 33.1 39 33.1 38.7C 33.1 38 32.7 37.7 32.1 37.7C 31.1 37.7 22.1 44.5 16.2 57.2C 11.1 68.2 9.9 79.3 9.9 87.7C 9.9 95.5 11 107.6 16.5 118.9C 22.5 131.2 31.1 137.7 32.1 137.7C 32.7 137.7 33.1 137.4 33.1 136.7ZM 84.8672 80.7C 84.8672 72.7 84.3672 64.7 80.8672 57.3C 76.2672 47.7 68.0672 46.1 63.8672 46.1C 57.8672 46.1 50.5672 48.7 46.4672 58C 43.2672 64.9 42.7672 72.7 42.7672 80.7C 42.7672 88.2 43.1672 97.2 47.2672 104.8C 51.5672 112.9 58.8672 114.9 63.7672 114.9C 69.1672 114.9 76.7672 112.8 81.1672 103.3C 84.3672 96.4 84.8672 88.6 84.8672 80.7ZM 76.5672 79.5C 76.5672 87 76.5672 93.8 75.4672 100.2C 73.9672 109.7 68.2672 112.7 63.7672 112.7C 59.8672 112.7 53.9672 110.2 52.1672 100.6C 51.0672 94.6 51.0672 85.4 51.0672 79.5C 51.0672 73.1 51.0672 66.5 51.8672 61.1C 53.7672 49.2 61.2672 48.3 63.7672 48.3C 67.0672 48.3 73.6672 50.1 75.5672 60C 76.5672 65.6 76.5672 73.2 76.5672 79.5ZM 109.167 112.6C 109.167 106.2 106.767 102.1 102.767 102.1C 99.2672 102.1 97.4672 104.8 97.4672 107.4C 97.4672 110 99.1672 112.7 102.767 112.7C 104.267 112.7 105.667 112.1 106.767 111.1C 106.967 119 104.167 125.1 99.7672 129.8C 99.1672 130.4 99.0672 130.5 99.0672 130.9C 99.0672 131.6 99.5672 132 100.067 132C 101.267 132 109.167 124.1 109.167 112.6ZM 196 80.7C 196 72.7 195.5 64.7 192 57.3C 187.4 47.7 179.2 46.1 175 46.1C 169 46.1 161.7 48.7 157.6 58C 154.4 64.9 153.9 72.7 153.9 80.7C 153.9 88.2 154.3 97.2 158.4 104.8C 162.7 112.9 170 114.9 174.9 114.9C 180.3 114.9 187.9 112.8 192.3 103.3C 195.5 96.4 196 88.6 196 80.7ZM 187.7 79.5C 187.7 87 187.7 93.8 186.6 100.2C 185.1 109.7 179.4 112.7 174.9 112.7C 171 112.7 165.1 110.2 163.3 100.6C 162.2 94.6 162.2 85.4 162.2 79.5C 162.2 73.1 162.2 66.5 163 61.1C 164.9 49.2 172.4 48.3 174.9 48.3C 178.2 48.3 184.8 50.1 186.7 60C 187.7 65.6 187.7 73.2 187.7 79.5ZM 228.9 87.7C 228.9 79.9 227.8 67.8 222.3 56.5C 216.3 44.2 207.7 37.7 206.7 37.7C 206.1 37.7 205.7 38.1 205.7 38.7C 205.7 39 205.7 39.2 207.6 41C 217.4 50.9 223.1 66.8 223.1 87.7C 223.1 104.8 219.4 122.4 207 135C 205.7 136.2 205.7 136.4 205.7 136.7C 205.7 137.3 206.1 137.7 206.7 137.7C 207.7 137.7 216.7 130.9 222.6 118.2C 227.7 107.2 228.9 96.1 228.9 87.7Z"/>
<path id="path7_fill" d="M 33.1 136.7C 33.1 136.4 33.1 136.2 31.4 134.5C 18.9 121.9 15.7 103 15.7 87.7C 15.7 70.3 19.5 52.9 31.8 40.4C 33.1 39.2 33.1 39 33.1 38.7C 33.1 38 32.7 37.7 32.1 37.7C 31.1 37.7 22.1 44.5 16.2 57.2C 11.1 68.2 9.9 79.3 9.9 87.7C 9.9 95.5 11 107.6 16.5 118.9C 22.5 131.2 31.1 137.7 32.1 137.7C 32.7 137.7 33.1 137.4 33.1 136.7ZM 80.7672 112.7L 80.7672 109.6L 77.5672 109.6C 68.5672 109.6 68.2672 108.5 68.2672 104.8L 68.2672 48.7C 68.2672 46.3 68.2672 46.1 65.9672 46.1C 59.7672 52.5 50.9672 52.5 47.7672 52.5L 47.7672 55.6C 49.7672 55.6 55.6672 55.6 60.8672 53L 60.8672 104.8C 60.8672 108.4 60.5672 109.6 51.5672 109.6L 48.3672 109.6L 48.3672 112.7C 51.8672 112.4 60.5672 112.4 64.5672 112.4C 68.5672 112.4 77.2672 112.4 80.7672 112.7ZM 109.167 112.6C 109.167 106.2 106.767 102.1 102.767 102.1C 99.2672 102.1 97.4672 104.8 97.4672 107.4C 97.4672 110 99.1672 112.7 102.767 112.7C 104.267 112.7 105.667 112.1 106.767 111.1C 106.967 119 104.167 125.1 99.7672 129.8C 99.1672 130.4 99.0672 130.5 99.0672 130.9C 99.0672 131.6 99.5672 132 100.067 132C 101.267 132 109.167 124.1 109.167 112.6ZM 196 80.7C 196 72.7 195.5 64.7 192 57.3C 187.4 47.7 179.2 46.1 175 46.1C 169 46.1 161.7 48.7 157.6 58C 154.4 64.9 153.9 72.7 153.9 80.7C 153.9 88.2 154.3 97.2 158.4 104.8C 162.7 112.9 170 114.9 174.9 114.9C 180.3 114.9 187.9 112.8 192.3 103.3C 195.5 96.4 196 88.6 196 80.7ZM 187.7 79.5C 187.7 87 187.7 93.8 186.6 100.2C 185.1 109.7 179.4 112.7 174.9 112.7C 171 112.7 165.1 110.2 163.3 100.6C 162.2 94.6 162.2 85.4 162.2 79.5C 162.2 73.1 162.2 66.5 163 61.1C 164.9 49.2 172.4 48.3 174.9 48.3C 178.2 48.3 184.8 50.1 186.7 60C 187.7 65.6 187.7 73.2 187.7 79.5ZM 228.9 87.7C 228.9 79.9 227.8 67.8 222.3 56.5C 216.3 44.2 207.7 37.7 206.7 37.7C 206.1 37.7 205.7 38.1 205.7 38.7C 205.7 39 205.7 39.2 207.6 41C 217.4 50.9 223.1 66.8 223.1 87.7C 223.1 104.8 219.4 122.4 207 135C 205.7 136.2 205.7 136.4 205.7 136.7C 205.7 137.3 206.1 137.7 206.7 137.7C 207.7 137.7 216.7 130.9 222.6 118.2C 227.7 107.2 228.9 96.1 228.9 87.7Z"/>
<path id="path8_fill" d="M 33.1 136.7C 33.1 136.4 33.1 136.2 31.4 134.5C 18.9 121.9 15.7 103 15.7 87.7C 15.7 70.3 19.5 52.9 31.8 40.4C 33.1 39.2 33.1 39 33.1 38.7C 33.1 38 32.7 37.7 32.1 37.7C 31.1 37.7 22.1 44.5 16.2 57.2C 11.1 68.2 9.9 79.3 9.9 87.7C 9.9 95.5 11 107.6 16.5 118.9C 22.5 131.2 31.1 137.7 32.1 137.7C 32.7 137.7 33.1 137.4 33.1 136.7ZM 84.8672 80.7C 84.8672 72.7 84.3672 64.7 80.8672 57.3C 76.2672 47.7 68.0672 46.1 63.8672 46.1C 57.8672 46.1 50.5672 48.7 46.4672 58C 43.2672 64.9 42.7672 72.7 42.7672 80.7C 42.7672 88.2 43.1672 97.2 47.2672 104.8C 51.5672 112.9 58.8672 114.9 63.7672 114.9C 69.1672 114.9 76.7672 112.8 81.1672 103.3C 84.3672 96.4 84.8672 88.6 84.8672 80.7ZM 76.5672 79.5C 76.5672 87 76.5672 93.8 75.4672 100.2C 73.9672 109.7 68.2672 112.7 63.7672 112.7C 59.8672 112.7 53.9672 110.2 52.1672 100.6C 51.0672 94.6 51.0672 85.4 51.0672 79.5C 51.0672 73.1 51.0672 66.5 51.8672 61.1C 53.7672 49.2 61.2672 48.3 63.7672 48.3C 67.0672 48.3 73.6672 50.1 75.5672 60C 76.5672 65.6 76.5672 73.2 76.5672 79.5ZM 109.167 112.6C 109.167 106.2 106.767 102.1 102.767 102.1C 99.2672 102.1 97.4672 104.8 97.4672 107.4C 97.4672 110 99.1672 112.7 102.767 112.7C 104.267 112.7 105.667 112.1 106.767 111.1C 106.967 119 104.167 125.1 99.7672 129.8C 99.1672 130.4 99.0672 130.5 99.0672 130.9C 99.0672 131.6 99.5672 132 100.067 132C 101.267 132 109.167 124.1 109.167 112.6ZM 191.9 112.7L 191.9 109.6L 188.7 109.6C 179.7 109.6 179.4 108.5 179.4 104.8L 179.4 48.7C 179.4 46.3 179.4 46.1 177.1 46.1C 170.9 52.5 162.1 52.5 158.9 52.5L 158.9 55.6C 160.9 55.6 166.8 55.6 172 53L 172 104.8C 172 108.4 171.7 109.6 162.7 109.6L 159.5 109.6L 159.5 112.7C 163 112.4 171.7 112.4 175.7 112.4C 179.7 112.4 188.4 112.4 191.9 112.7ZM 228.9 87.7C 228.9 79.9 227.8 67.8 222.3 56.5C 216.3 44.2 207.7 37.7 206.7 37.7C 206.1 37.7 205.7 38.1 205.7 38.7C 205.7 39 205.7 39.2 207.6 41C 217.4 50.9 223.1 66.8 223.1 87.7C 223.1 104.8 219.4 122.4 207 135C 205.7 136.2 205.7 136.4 205.7 136.7C 205.7 137.3 206.1 137.7 206.7 137.7C 207.7 137.7 216.7 130.9 222.6 118.2C 227.7 107.2 228.9 96.1 228.9 87.7Z"/>
<path id="path9_fill" d="M 33.1 136.7C 33.1 136.4 33.1 136.2 31.4 134.5C 18.9 121.9 15.7 103 15.7 87.7C 15.7 70.3 19.5 52.9 31.8 40.4C 33.1 39.2 33.1 39 33.1 38.7C 33.1 38 32.7 37.7 32.1 37.7C 31.1 37.7 22.1 44.5 16.2 57.2C 11.1 68.2 9.9 79.3 9.9 87.7C 9.9 95.5 11 107.6 16.5 118.9C 22.5 131.2 31.1 137.7 32.1 137.7C 32.7 137.7 33.1 137.4 33.1 136.7ZM 80.7672 112.7L 80.7672 109.6L 77.5672 109.6C 68.5672 109.6 68.2672 108.5 68.2672 104.8L 68.2672 48.7C 68.2672 46.3 68.2672 46.1 65.9672 46.1C 59.7672 52.5 50.9672 52.5 47.7672 52.5L 47.7672 55.6C 49.7672 55.6 55.6672 55.6 60.8672 53L 60.8672 104.8C 60.8672 108.4 60.5672 109.6 51.5672 109.6L 48.3672 109.6L 48.3672 112.7C 51.8672 112.4 60.5672 112.4 64.5672 112.4C 68.5672 112.4 77.2672 112.4 80.7672 112.7ZM 109.167 112.6C 109.167 106.2 106.767 102.1 102.767 102.1C 99.2672 102.1 97.4672 104.8 97.4672 107.4C 97.4672 110 99.1672 112.7 102.767 112.7C 104.267 112.7 105.667 112.1 106.767 111.1C 106.967 119 104.167 125.1 99.7672 129.8C 99.1672 130.4 99.0672 130.5 99.0672 130.9C 99.0672 131.6 99.5672 132 100.067 132C 101.267 132 109.167 124.1 109.167 112.6ZM 191.9 112.7L 191.9 109.6L 188.7 109.6C 179.7 109.6 179.4 108.5 179.4 104.8L 179.4 48.7C 179.4 46.3 179.4 46.1 177.1 46.1C 170.9 52.5 162.1 52.5 158.9 52.5L 158.9 55.6C 160.9 55.6 166.8 55.6 172 53L 172 104.8C 172 108.4 171.7 109.6 162.7 109.6L 159.5 109.6L 159.5 112.7C 163 112.4 171.7 112.4 175.7 112.4C 179.7 112.4 188.4 112.4 191.9 112.7ZM 228.9 87.7C 228.9 79.9 227.8 67.8 222.3 56.5C 216.3 44.2 207.7 37.7 206.7 37.7C 206.1 37.7 205.7 38.1 205.7 38.7C 205.7 39 205.7 39.2 207.6 41C 217.4 50.9 223.1 66.8 223.1 87.7C 223.1 104.8 219.4 122.4 207 135C 205.7 136.2 205.7 136.4 205.7 136.7C 205.7 137.3 206.1 137.7 206.7 137.7C 207.7 137.7 216.7 130.9 222.6 118.2C 227.7 107.2 228.9 96.1 228.9 87.7Z"/>
</defs>
</svg>
