<svg width="915" height="936" viewBox="0 0 915 936" version="1.1" xmlns="http://www.w3.org/2000/svg" xmlns:xlink="http://www.w3.org/1999/xlink" xmlns:figma="http://www.figma.com/figma/ns">
<title>Group</title>
<desc>Created using Figma</desc>
<g id="Canvas" transform="translate(-5837 -643)" figma:type="canvas">
<g id="Group" style="mix-blend-mode:normal;" figma:type="frame">
<g id="Rectangle" style="mix-blend-mode:normal;" figma:type="rounded-rectangle">
<use xlink:href="#path0_fill" transform="translate(5837.63 833.272)" fill="#039BE5" style="mix-blend-mode:normal;"/>
</g>
<g id="Rectangle" style="mix-blend-mode:normal;" figma:type="rounded-rectangle">
<use xlink:href="#path0_fill" transform="translate(6027.63 833.272)" fill="#0C6AC7" style="mix-blend-mode:normal;"/>
</g>
<g id="Rectangle" style="mix-blend-mode:normal;" figma:type="rounded-rectangle">
<use xlink:href="#path0_fill" transform="translate(6208.63 833.272)" fill="#039BE5" style="mix-blend-mode:normal;"/>
</g>
<g id="Rectangle" style="mix-blend-mode:normal;" figma:type="rounded-rectangle">
<use xlink:href="#path0_fill" transform="translate(6570.63 833.272)" fill="#039BE5" style="mix-blend-mode:normal;"/>
</g>
<g id="Rectangle" style="mix-blend-mode:normal;" figma:type="rounded-rectangle">
<use xlink:href="#path0_fill" transform="translate(6389.63 833.272)" fill="#0C6AC7" style="mix-blend-mode:normal;"/>
</g>
<g id="Rectangle" style="mix-blend-mode:normal;" figma:type="rounded-rectangle">
<use xlink:href="#path1_fill" transform="translate(5837.63 643.272)" fill="#039BE5" style="mix-blend-mode:normal;"/>
</g>
<g id="Rectangle" style="mix-blend-mode:normal;" figma:type="rounded-rectangle">
<use xlink:href="#path1_fill" transform="translate(6027.63 643.272)" fill="#0C6AC7" style="mix-blend-mode:normal;"/>
</g>
<g id="Rectangle" style="mix-blend-mode:normal;" figma:type="rounded-rectangle">
<use xlink:href="#path1_fill" transform="translate(6208.63 643.272)" fill="#039BE5" style="mix-blend-mode:normal;"/>
</g>
<g id="Rectangle" style="mix-blend-mode:normal;" figma:type="rounded-rectangle">
<use xlink:href="#path1_fill" transform="translate(6570.63 643.272)" fill="#039BE5" style="mix-blend-mode:normal;"/>
</g>
<g id="Rectangle" style="mix-blend-mode:normal;" figma:type="rounded-rectangle">
<use xlink:href="#path1_fill" transform="translate(6389.63 643.272)" fill="#0C6AC7" style="mix-blend-mode:normal;"/>
</g>
<g id="I" style="mix-blend-mode:normal;" figma:type="text">
<use xlink:href="#path2_fill" transform="translate(6095.76 653.272)" fill="#FFFFFF" style="mix-blend-mode:normal;"/>
</g>
<g id="I" style="mix-blend-mode:normal;" figma:type="text">
<use xlink:href="#path2_fill" transform="translate(5905.76 843.272)" fill="#FFFFFF" style="mix-blend-mode:normal;"/>
</g>
<g id="H" style="mix-blend-mode:normal;" figma:type="text">
<use xlink:href="#path3_fill" transform="translate(5883.26 1024.27)" fill="#FFFFFF" style="mix-blend-mode:normal;"/>
</g>
<g id="H" style="mix-blend-mode:normal;" figma:type="text">
<use xlink:href="#path3_fill" transform="translate(6254.26 653.272)" fill="#FFFFFF" style="mix-blend-mode:normal;"/>
</g>
<g id="V" style="mix-blend-mode:normal;" figma:type="text">
<use xlink:href="#path4_fill" transform="translate(5888.76 1205.27)" fill="#FFFFFF" style="mix-blend-mode:normal;"/>
</g>
<g id="V" style="mix-blend-mode:normal;" figma:type="text">
<use xlink:href="#path4_fill" transform="translate(6440.76 653.272)" fill="#FFFFFF" style="mix-blend-mode:normal;"/>
</g>
<g id="R" style="mix-blend-mode:normal;" figma:type="text">
<use xlink:href="#path5_fill" transform="translate(5884.26 1386.27)" fill="#FFFFFF" style="mix-blend-mode:normal;"/>
</g>
<g id="R" style="mix-blend-mode:normal;" figma:type="text">
<use xlink:href="#path5_fill" transform="translate(6617.26 653.272)" fill="#FFFFFF" style="mix-blend-mode:normal;"/>
</g>
<g id="I" style="mix-blend-mode:normal;" figma:type="text">
<use xlink:href="#path6_fill" transform="translate(6095.76 843.272)" fill="#FFFFFF" style="mix-blend-mode:normal;"/>
</g>
<g id="H" style="mix-blend-mode:normal;" figma:type="text">
<use xlink:href="#path7_fill" transform="translate(6079.63 1024.27)" fill="#FFFFFF" style="mix-blend-mode:normal;"/>
</g>
<g id="V" style="mix-blend-mode:normal;" figma:type="text">
<use xlink:href="#path8_fill" transform="translate(6081.63 1205.27)" fill="#FFFFFF" style="mix-blend-mode:normal;"/>
</g>
<g id="R" style="mix-blend-mode:normal;" figma:type="text">
<use xlink:href="#path9_fill" transform="translate(6081.63 1386.27)" fill="#FFFFFF" style="mix-blend-mode:normal;"/>
</g>
<g id="H" style="mix-blend-mode:normal;" figma:type="text">
<use xlink:href="#path7_fill" transform="translate(6262.38 843.272)" fill="#FFFFFF" style="mix-blend-mode:normal;"/>
</g>
<g id="V" style="mix-blend-mode:normal;" figma:type="text">
<use xlink:href="#path8_fill" transform="translate(6441.88 843.272)" fill="#FFFFFF" style="mix-blend-mode:normal;"/>
</g>
<g id="R" style="mix-blend-mode:normal;" figma:type="text">
<use xlink:href="#path9_fill" transform="translate(6623.88 843.272)" fill="#FFFFFF" style="mix-blend-mode:normal;"/>
</g>
<g id="H" style="mix-blend-mode:normal;" figma:type="text">
<use xlink:href="#path7_fill" transform="translate(6625.38 1205.27)" fill="#FFFFFF" style="mix-blend-mode:normal;"/>
</g>
<g id="R" style="mix-blend-mode:normal;" figma:type="text">
<use xlink:href="#path9_fill" transform="translate(6440.76 1024.27)" fill="#FFFFFF" style="mix-blend-mode:normal;"/>
</g>
<g id="R" style="mix-blend-mode:normal;" figma:type="text">
<use xlink:href="#path9_fill" transform="translate(6263.38 1205.27)" fill="#FFFFFF" style="mix-blend-mode:normal;"/>
</g>
<g id="V" style="mix-blend-mode:normal;" figma:type="text">
<use xlink:href="#path8_fill" transform="translate(6262.13 1386.77)" fill="#FFFFFF" style="mix-blend-mode:normal;"/>
</g>
<g id="I" style="mix-blend-mode:normal;" figma:type="text">
<use xlink:href="#path6_fill" transform="translate(6280.63 1024.27)" fill="#FFFFFF" style="mix-blend-mode:normal;"/>
</g>
<g id="I" style="mix-blend-mode:normal;" figma:type="text">
<use xlink:href="#path6_fill" transform="translate(6465.76 1205.27)" fill="#FFFFFF" style="mix-blend-mode:normal;"/>
</g>
<g id="H" style="mix-blend-mode:normal;" figma:type="text">
<use xlink:href="#path7_fill" transform="translate(6446.01 1386.27)" fill="#FFFFFF" style="mix-blend-mode:normal;"/>
</g>
<g id="I" style="mix-blend-mode:normal;" figma:type="text">
<use xlink:href="#path6_fill" transform="translate(6642.26 1386.27)" fill="#FFFFFF" style="mix-blend-mode:normal;"/>
</g>
<g id="V" style="mix-blend-mode:normal;" figma:type="text">
<use xlink:href="#path8_fill" transform="translate(6625.38 1024.27)" fill="#FFFFFF" style="mix-blend-mode:normal;"/>
</g>
</g>
</g>
<defs>
<path id="path0_fill" d="M 0 0L 181 0L 181 745L 0 745L 0 0Z"/>
<path id="path1_fill" d="M 0 0L 181 0L 181 181L 0 181L 0 0Z"/>
<path id="path2_fill" d="M 40.3 113.3L 40.3 108.6L 28.9 108.6L 28.9 49.4L 40.3 49.4L 40.3 44.7C 36.2 45 26.4 45 21.8 45C 17.2 45 7.4 45 3.3 44.7L 3.3 49.4L 14.7 49.4L 14.7 108.6L 3.3 108.6L 3.3 113.3C 7.4 113 17.2 113 21.8 113C 26.4 113 36.2 113 40.3 113.3Z"/>
<path id="path3_fill" d="M 86 113.3L 86 108.6L 75.2 108.6L 75.2 49.4L 86 49.4L 86 44.7C 82.2 45 72.4 45 68.1 45C 63.8 45 54 45 50.2 44.7L 50.2 49.4L 61 49.4L 61 75.3L 28.9 75.3L 28.9 49.4L 39.7 49.4L 39.7 44.7C 35.9 45 26.1 45 21.8 45C 17.5 45 7.7 45 3.9 44.7L 3.9 49.4L 14.7 49.4L 14.7 108.6L 3.9 108.6L 3.9 113.3C 7.7 113 17.5 113 21.8 113C 26.1 113 35.9 113 39.7 113.3L 39.7 108.6L 28.9 108.6L 28.9 80L 61 80L 61 108.6L 50.2 108.6L 50.2 113.3C 54 113 63.8 113 68.1 113C 72.4 113 82.2 113 86 113.3Z"/>
<path id="path4_fill" d="M 84.2 49.4L 84.2 44.7L 72.9 45C 68.9 45 63.7 45 59.8 44.7L 59.8 49.4C 60.7 49.4 68.6 49.4 68.6 50.6C 68.6 51 68.3 51.5 68.2 51.8L 48 97.3L 26.7 49.4L 36.1 49.4L 36.1 44.7C 32.3 45 22.7 45 18.4 45C 14.5 45 6.1 45 2.6 44.7L 2.6 49.4L 11.8 49.4L 39.4 111.5C 40.2 113.3 40.6 114.1 43.4 114.1C 45 114.1 46.3 114.1 47.4 111.7L 74 51.6C 74.6 50.3 75 49.4 82.3 49.4L 84.2 49.4Z"/>
<path id="path5_fill" d="M 85.8 103.8C 85.8 101.6 84.4 101.6 83.4 101.6C 81.3 101.6 81.2 102.6 81.1 103.9C 80.6 108.6 77.7 110.8 74.7 110.8C 68.7 110.8 67.8 103.7 67.3 99.5C 67.1 98.4 66.3 91.5 66.2 91C 64.8 84 59.3 80.9 55 79.3C 66.6 76.3 71.7 69.8 71.7 63.2C 71.7 53.1 60.7 44.7 41.9 44.7L 3.9 44.7L 3.9 49.4L 14.7 49.4L 14.7 108.6L 3.9 108.6L 3.9 113.3C 7.5 113 17.3 113 21.5 113C 25.7 113 35.5 113 39.1 113.3L 39.1 108.6L 28.3 108.6L 28.3 80.8L 40 80.8C 41.4 80.8 45.8 80.8 48.9 84.2C 52.1 87.7 52.1 89.6 52.1 96.9C 52.1 103.5 52.1 108.4 59.1 111.8C 63.5 114 69.7 114.4 73.8 114.4C 84.5 114.4 85.8 105.4 85.8 103.8ZM 56.4 63.3C 56.4 68.9 56.4 77.2 39.9 77.2L 28.3 77.2L 28.3 49.4L 40.1 49.4C 56.2 49.4 56.4 57.2 56.4 63.3Z"/>
<path id="path6_fill" d="M 33.3 112.7L 33.3 109.6L 30.7 109.6C 22.8 109.6 22.5 108.5 22.5 104.9L 22.5 52.2C 22.5 48.6 22.8 47.5 30.7 47.5L 33.3 47.5L 33.3 44.4C 29.8 44.7 21.9 44.7 18.1 44.7C 14.2 44.7 6.3 44.7 2.8 44.4L 2.8 47.5L 5.4 47.5C 13.3 47.5 13.6 48.6 13.6 52.2L 13.6 104.9C 13.6 108.5 13.3 109.6 5.4 109.6L 2.8 109.6L 2.8 112.7C 6.3 112.4 14.2 112.4 18 112.4C 21.9 112.4 29.8 112.4 33.3 112.7Z"/>
<path id="path7_fill" d="M 71.6 112.7L 71.6 109.6L 69.2 109.6C 61.5 109.6 61.3 108.5 61.3 104.9L 61.3 52.2C 61.3 48.6 61.5 47.5 69.2 47.5L 71.6 47.5L 71.6 44.4C 68.1 44.7 60.7 44.7 56.9 44.7C 53.1 44.7 45.6 44.7 42.1 44.4L 42.1 47.5L 44.5 47.5C 52.2 47.5 52.4 48.6 52.4 52.2L 52.4 75.6L 22.5 75.6L 22.5 52.2C 22.5 48.6 22.7 47.5 30.4 47.5L 32.8 47.5L 32.8 44.4C 29.3 44.7 21.9 44.7 18.1 44.7C 14.3 44.7 6.8 44.7 3.3 44.4L 3.3 47.5L 5.7 47.5C 13.4 47.5 13.6 48.6 13.6 52.2L 13.6 104.9C 13.6 108.5 13.4 109.6 5.7 109.6L 3.3 109.6L 3.3 112.7C 6.8 112.4 14.2 112.4 18 112.4C 21.8 112.4 29.3 112.4 32.8 112.7L 32.8 109.6L 30.4 109.6C 22.7 109.6 22.5 108.5 22.5 104.9L 22.5 78.7L 52.4 78.7L 52.4 104.9C 52.4 108.5 52.2 109.6 44.5 109.6L 42.1 109.6L 42.1 112.7C 45.6 112.4 53 112.4 56.8 112.4C 60.6 112.4 68.1 112.4 71.6 112.7Z"/>
<path id="path8_fill" d="M 73 47.5L 73 44.4C 69.9 44.6 65.9 44.7 63.3 44.7L 51.9 44.4L 51.9 47.5C 57.1 47.6 59.2 50.2 59.2 52.5C 59.2 53.3 58.9 53.9 58.7 54.5L 40.4 102.7L 21.3 52.2C 20.7 50.8 20.7 50.4 20.7 50.4C 20.7 47.5 26.4 47.5 28.9 47.5L 28.9 44.4C 25.3 44.7 18.4 44.7 14.6 44.7L 1.9 44.4L 1.9 47.5C 8.4 47.5 10.3 47.5 11.7 51.3L 34.9 112.7C 35.6 114.6 36.1 114.9 37.4 114.9C 39.1 114.9 39.3 114.4 39.8 113L 62.1 54.2C 63.5 50.5 66.2 47.6 73 47.5Z"/>
<path id="path9_fill" d="M 73.2 103.9C 73.2 103.3 73.2 102.2 71.9 102.2C 70.8 102.2 70.8 103.1 70.7 103.8C 70.1 110.9 66.6 112.7 64.1 112.7C 59.2 112.7 58.4 107.6 57 98.3L 55.7 90.3C 53.9 83.9 49 80.6 43.5 78.7C 53.2 76.3 61 70.2 61 62.4C 61 52.8 49.6 44.4 34.9 44.4L 3.5 44.4L 3.5 47.5L 5.9 47.5C 13.6 47.5 13.8 48.6 13.8 52.2L 13.8 104.9C 13.8 108.5 13.6 109.6 5.9 109.6L 3.5 109.6L 3.5 112.7C 7.1 112.4 14.2 112.4 18.1 112.4C 22 112.4 29.1 112.4 32.7 112.7L 32.7 109.6L 30.3 109.6C 22.6 109.6 22.4 108.5 22.4 104.9L 22.4 79.6L 33.9 79.6C 35.5 79.6 39.7 79.6 43.2 83C 47 86.6 47 89.7 47 96.4C 47 102.9 47 106.9 51.1 110.7C 55.2 114.3 60.7 114.9 63.7 114.9C 71.5 114.9 73.2 106.7 73.2 103.9ZM 50.7 62.4C 50.7 69.3 48.3 77.4 33.5 77.4L 22.4 77.4L 22.4 51.5C 22.4 49.2 22.4 48 24.6 47.7C 25.6 47.5 28.5 47.5 30.5 47.5C 39.5 47.5 50.7 47.9 50.7 62.4Z"/>
</defs>
</svg>
